<svg width="61" height="61" viewBox="0 0 61 61" fill="none" xmlns="http://www.w3.org/2000/svg">
<mask id="mask0_3444_8" style="mask-type:alpha" maskUnits="userSpaceOnUse" x="0" y="0" width="61" height="61">
<rect x="0.6875" y="0.606445" width="60" height="60" fill="#000"/>
</mask>
<g mask="url(#mask0_3444_8)">
<path d="M28.1875 23.1064V15.6064H20.6875V10.6064H28.1875V3.10645H33.1875V10.6064H40.6875V15.6064H33.1875V23.1064H28.1875ZM18.1875 55.6064C16.8125 55.6064 15.6354 55.1169 14.6563 54.1377C13.6771 53.1585 13.1875 51.9814 13.1875 50.6064C13.1875 49.2314 13.6771 48.0544 14.6563 47.0752C15.6354 46.096 16.8125 45.6064 18.1875 45.6064C19.5625 45.6064 20.7396 46.096 21.7187 47.0752C22.6979 48.0544 23.1875 49.2314 23.1875 50.6064C23.1875 51.9814 22.6979 53.1585 21.7187 54.1377C20.7396 55.1169 19.5625 55.6064 18.1875 55.6064ZM43.1875 55.6064C41.8125 55.6064 40.6354 55.1169 39.6563 54.1377C38.6771 53.1585 38.1875 51.9814 38.1875 50.6064C38.1875 49.2314 38.6771 48.0544 39.6563 47.0752C40.6354 46.096 41.8125 45.6064 43.1875 45.6064C44.5625 45.6064 45.7396 46.096 46.7188 47.0752C47.6979 48.0544 48.1875 49.2314 48.1875 50.6064C48.1875 51.9814 47.6979 53.1585 46.7188 54.1377C45.7396 55.1169 44.5625 55.6064 43.1875 55.6064ZM3.1875 10.6064V5.60645H11.375L22 28.1064H39.5L49.25 10.6064H54.9375L43.9375 30.4814C43.4792 31.3148 42.8646 31.9606 42.0938 32.4189C41.3229 32.8773 40.4792 33.1064 39.5625 33.1064H20.9375L18.1875 38.1064H48.1875V43.1064H18.1875C16.3125 43.1064 14.8854 42.2939 13.9062 40.6689C12.9271 39.0439 12.8958 37.3981 13.8125 35.7314L17.1875 29.6064L8.1875 10.6064H3.1875Z" fill="black"/>
</g>
</svg>