<svg width="201" height="201" viewBox="0 0 201 201" fill="none" xmlns="http://www.w3.org/2000/svg">
<mask id="mask0_3447_32" style="mask-type:alpha" maskUnits="userSpaceOnUse" x="0" y="0" width="201" height="201">
<rect x="0.334961" y="0.270508" width="200" height="200" fill="#D9D9D9"/>
</mask>
<g mask="url(#mask0_3447_32)">
<path d="M100.335 183.604C88.8075 183.604 77.9742 181.417 67.8353 177.042C57.6964 172.667 48.877 166.729 41.377 159.229C33.877 151.729 27.9395 142.91 23.5645 132.771C19.1895 122.632 17.002 111.799 17.002 100.271C17.002 88.7431 19.1895 77.9097 23.5645 67.7708C27.9395 57.6319 33.877 48.8125 41.377 41.3125C48.877 33.8125 57.6964 27.875 67.8353 23.5C77.9742 19.125 88.8075 16.9375 100.335 16.9375C109.363 16.9375 117.905 18.2569 125.96 20.8958C134.016 23.5347 141.446 27.2153 148.252 31.9375L136.169 44.2292C130.891 40.8958 125.266 38.2917 119.294 36.4167C113.321 34.5417 107.002 33.6042 100.335 33.6042C81.8631 33.6042 66.1339 40.0972 53.1478 53.0833C40.1617 66.0694 33.6686 81.7986 33.6686 100.271C33.6686 118.743 40.1617 134.472 53.1478 147.458C66.1339 160.444 81.8631 166.938 100.335 166.938C118.808 166.938 134.537 160.444 147.523 147.458C160.509 134.472 167.002 118.743 167.002 100.271C167.002 97.7708 166.863 95.2708 166.585 92.7708C166.308 90.2708 165.891 87.8403 165.335 85.4792L178.877 71.9375C180.405 76.3819 181.585 80.9653 182.419 85.6875C183.252 90.4097 183.669 95.2708 183.669 100.271C183.669 111.799 181.481 122.632 177.106 132.771C172.731 142.91 166.794 151.729 159.294 159.229C151.794 166.729 142.974 172.667 132.835 177.042C122.696 181.417 111.863 183.604 100.335 183.604ZM88.6686 138.604L53.252 103.188L64.9186 91.5208L88.6686 115.271L172.002 31.7292L183.669 43.3958L88.6686 138.604Z" fill="#4FAE43"/>
</g>
</svg>