<?xml version="1.0" encoding="UTF-8"?>
<svg width="200px" height="200px" viewBox="0 0 200 200" version="1.1" xmlns="http://www.w3.org/2000/svg">
    <g stroke="none" stroke-width="1" fill="none" fill-rule="evenodd">
        <path d="M60,40 L140,40 C145.522847,-5.07265313e-15 150,4.4771525 150,10 L150,150 C150,155.522847 145.522847,160 140,160 L60,160 C54.4771525,160 50,155.522847 50,150 L50,10 C50,4.4771525 54.4771525,5.07265313e-15 60,10 Z" fill="#F5F5F5"/>
        <path d="M70,50 L130,50 C132.761424,50 135,52.2385763 135,55 L135,145 C135,147.761424 132.761424,150 130,150 L70,150 C67.2385763,150 65,147.761424 65,145 L65,55 C65,52.2385763 67.2385763,50 70,50 Z" fill="#FFFFFF" stroke="#E0E0E0" stroke-width="2"/>
        <path d="M85,70 L115,70 C117.761424,70 120,72.2385763 120,75 L120,125 C120,127.761424 117.761424,130 115,130 L85,130 C82.2385763,130 80,127.761424 80,125 L80,75 C80,72.2385763 82.2385763,70 85,70 Z" fill="#F5F5F5"/>
        <path d="M90,80 L110,80 C111.104569,80 112,80.8954305 112,82 L112,118 C112,119.104569 111.104569,120 110,120 L90,120 C88.8954305,120 88,119.104569 88,118 L88,82 C88,80.8954305 88.8954305,80 90,80 Z" fill="#E0E0E0"/>
        <path d="M95,90 L105,90 C105.552285,90 106,90.4477153 106,91 L106,109 C106,109.552285 105.552285,110 105,110 L95,110 C94.4477153,110 94,109.552285 94,109 L94,91 C94,90.4477153 94.4477153,90 95,90 Z" fill="#CCCCCC"/>
    </g>
</svg> 