<svg width="52" height="52" viewBox="0 0 52 52" fill="none" xmlns="http://www.w3.org/2000/svg">
<mask id="mask0_2882_450" style="mask-type:alpha" maskUnits="userSpaceOnUse" x="0" y="0" width="52" height="52">
<rect width="52" height="52" fill="#D9D9D9"/>
</mask>
<g mask="url(#mask0_2882_450)">
<path d="M20.0403 47.6663L19.1736 40.733C18.7042 40.5525 18.2618 40.3358 17.8465 40.083C17.4313 39.8302 17.025 39.5594 16.6278 39.2705L10.182 41.9788L4.22363 31.6872L9.8028 27.4622C9.76669 27.2094 9.74863 26.9656 9.74863 26.7309V25.2684C9.74863 25.0337 9.76669 24.7899 9.8028 24.5372L4.22363 20.3122L10.182 10.0205L16.6278 12.7288C17.025 12.44 17.4403 12.1691 17.8736 11.9163C18.307 11.6636 18.7403 11.4469 19.1736 11.2663L20.0403 4.33301H31.957L32.8236 11.2663C33.2931 11.4469 33.7354 11.6636 34.1507 11.9163C34.566 12.1691 34.9722 12.44 35.3695 12.7288L41.8153 10.0205L47.7736 20.3122L42.1945 24.5372C42.2306 24.7899 42.2486 25.0337 42.2486 25.2684V26.7309C42.2486 26.9656 42.2125 27.2094 42.1403 27.4622L47.7195 31.6872L41.7611 41.9788L35.3695 39.2705C34.9722 39.5594 34.557 39.8302 34.1236 40.083C33.6903 40.3358 33.257 40.5525 32.8236 40.733L31.957 47.6663H20.0403ZM23.832 43.333H28.1111L28.8695 37.5913C29.9889 37.3025 31.0271 36.8781 31.984 36.3184C32.941 35.7587 33.8167 35.0816 34.6111 34.2872L39.9736 36.508L42.0861 32.8247L37.4278 29.3038C37.6084 28.7983 37.7347 28.2656 37.807 27.7059C37.8792 27.1462 37.9153 26.5774 37.9153 25.9997C37.9153 25.4219 37.8792 24.8531 37.807 24.2934C37.7347 23.7337 37.6084 23.2011 37.4278 22.6955L42.0861 19.1747L39.9736 15.4913L34.6111 17.7663C33.8167 16.9358 32.941 16.2406 31.984 15.6809C31.0271 15.1212 29.9889 14.6969 28.8695 14.408L28.1653 8.66634H23.8861L23.1278 14.408C22.0084 14.6969 20.9702 15.1212 20.0132 15.6809C19.0563 16.2406 18.1806 16.9177 17.3861 17.7122L12.0236 15.4913L9.91113 19.1747L14.5695 22.6413C14.3889 23.183 14.2625 23.7247 14.1903 24.2663C14.1181 24.808 14.082 25.3858 14.082 25.9997C14.082 26.5774 14.1181 27.1372 14.1903 27.6788C14.2625 28.2205 14.3889 28.7622 14.5695 29.3038L9.91113 32.8247L12.0236 36.508L17.3861 34.233C18.1806 35.0636 19.0563 35.7587 20.0132 36.3184C20.9702 36.8781 22.0084 37.3025 23.1278 37.5913L23.832 43.333ZM26.107 33.583C28.2014 33.583 29.9889 32.8427 31.4695 31.3622C32.95 29.8816 33.6903 28.0941 33.6903 25.9997C33.6903 23.9052 32.95 22.1177 31.4695 20.6372C29.9889 19.1566 28.2014 18.4163 26.107 18.4163C23.9764 18.4163 22.1799 19.1566 20.7174 20.6372C19.2549 22.1177 18.5236 23.9052 18.5236 25.9997C18.5236 28.0941 19.2549 29.8816 20.7174 31.3622C22.1799 32.8427 23.9764 33.583 26.107 33.583Z" fill="#684A43"/>
</g>
</svg>