<svg width="30" height="30" viewBox="0 0 30 30" fill="none" xmlns="http://www.w3.org/2000/svg">
<mask id="mask0_1680_412" style="mask-type:alpha" maskUnits="userSpaceOnUse" x="0" y="0" width="30" height="30">
<rect width="30" height="30" fill="#D9D9D9"/>
</mask>
<g mask="url(#mask0_1680_412)">
<path d="M5.5 20.7881C5.70833 20.7262 5.91146 20.6746 6.10938 20.6333C6.30729 20.5921 6.52083 20.5714 6.75 20.5714H8V5.71429H6.75C6.39583 5.71429 6.09896 5.83294 5.85938 6.07024C5.61979 6.30754 5.5 6.60159 5.5 6.95238V20.7881ZM6.75 28C5.70833 28 4.82292 27.6389 4.09375 26.9167C3.36458 26.1944 3 25.3175 3 24.2857V6.95238C3 5.92063 3.36458 5.04365 4.09375 4.32143C4.82292 3.59921 5.70833 3.2381 6.75 3.2381H15.5V5.71429H10.5V20.5714H18V16.8571H20.5V23.0476H6.75C6.39583 23.0476 6.09896 23.1663 5.85938 23.4036C5.61979 23.6409 5.5 23.9349 5.5 24.2857C5.5 24.6365 5.61979 24.9306 5.85938 25.1679C6.09896 25.4052 6.39583 25.5238 6.75 25.5238H23V15.619H25.5V28H6.75ZM21.125 15.619C21.125 13.7206 21.7917 12.1111 23.125 10.7905C24.4583 9.46984 26.0833 8.80952 28 8.80952C26.0833 8.80952 24.4583 8.14921 23.125 6.82857C21.7917 5.50794 21.125 3.89841 21.125 2C21.125 3.89841 20.4583 5.50794 19.125 6.82857C17.7917 8.14921 16.1667 8.80952 14.25 8.80952C16.1667 8.80952 17.7917 9.46984 19.125 10.7905C20.4583 12.1111 21.125 13.7206 21.125 15.619Z" fill="#684A43"/>
</g>
</svg>