<svg width="201" height="201" viewBox="0 0 201 201" fill="none" xmlns="http://www.w3.org/2000/svg">
<mask id="mask0_3445_26" style="mask-type:alpha" maskUnits="userSpaceOnUse" x="0" y="0" width="201" height="201">
<rect x="0.334961" y="0.270508" width="200" height="200" fill="#D9D9D9"/>
</mask>
<g mask="url(#mask0_3445_26)">
<path d="M175.335 151.52L158.669 134.854V41.9369H65.752L49.0853 25.2702H158.669C163.252 25.2702 167.176 26.9021 170.439 30.166C173.703 33.4299 175.335 37.3535 175.335 41.9369V151.52ZM165.335 188.604L152.002 175.27H42.002C37.4186 175.27 33.495 173.638 30.2311 170.374C26.9672 167.11 25.3353 163.187 25.3353 158.604V48.6035L12.002 35.2702L23.6686 23.6035L177.002 176.937L165.335 188.604ZM50.3353 141.937L75.3353 108.604L94.0853 133.604L100.96 124.437L42.002 65.4785V158.604H135.127L118.46 141.937H50.3353Z" fill="#1C1B1F"/>
</g>
</svg>